<?xml version="1.0" encoding="utf-8"?>
<!-- Generator: Adobe Illustrator 24.0.1, SVG Export Plug-In . SVG Version: 6.00 Build 0)  -->
<svg version="1.1" id="图层_1" xmlns="http://www.w3.org/2000/svg" xmlns:xlink="http://www.w3.org/1999/xlink" x="0px" y="0px"
	 viewBox="0 0 200 200" style="enable-background:new 0 0 200 200;" xml:space="preserve" fill="#606266">
<path d="M93.7,82.6h100.6c0.9,0,1.7-0.9,1.7-2V66.7c0-1.1-0.8-2-1.7-2H93.7c-0.9,0-1.7,0.9-1.7,2v13.9C92,81.7,92.8,82.6,93.7,82.6
	L93.7,82.6z M92,133.3c0,1.1,0.8,2,1.7,2h100.6c0.9,0,1.7-0.9,1.7-2v-13.9c0-1.1-0.8-2-1.7-2H93.7c-0.9,0-1.7,0.9-1.7,2V133.3z
	 M198,12.5H2c-1.1,0-2,0.9-2,2v13.9c0,1.1,0.9,2,2,2h196c1.1,0,2-0.9,2-2V14.5C200,13.4,199.1,12.5,198,12.5z M198,169.6H2
	c-1.1,0-2,0.9-2,2v13.9c0,1.1,0.9,2,2,2h196c1.1,0,2-0.9,2-2v-13.9C200,170.5,199.1,169.6,198,169.6z M1.4,81.8L32,120.9
	c0.9,1.1,2.6,1.1,3.5,0l30.6-39.1c1.1-1.4,0.1-3.6-1.7-3.6H3.2C1.3,78.2,0.3,80.4,1.4,81.8z"/>
</svg>
